<svg id="Layer_1" data-name="Layer 1" xmlns="http://www.w3.org/2000/svg" viewBox="0 0 36.12 36.12"><defs><style>.cls-2{fill:#fff;}</style></defs><g class="cls-1"><path class="cls-2" d="M21.32.26a10,10,0,0,0,4.55,1.35,15.77,15.77,0,0,0,5.5-.74A6.82,6.82,0,0,0,33.45,0H21.08C21.08.08,21.15.17,21.32.26Z"/><path class="cls-2" d="M35.79,6.46a16,16,0,0,0-1.35,6.28c0,.19,0,.38,0,.56a9,9,0,0,0,1.27,4.57c.17.29.29.41.41.37V6.14h-.06C35.9,6.14,35.85,6.31,35.79,6.46Z"/><path class="cls-2" d="M26.89,6.5a8,8,0,0,0,3.34-.78,12.23,12.23,0,0,0,5-4c.13-.18.42-.35.32-.55s-.44-.13-.66-.1a15.33,15.33,0,0,0-3.54.9A9.59,9.59,0,0,0,26.5,5.65c-.15.23-.46.48-.32.74S26.7,6.45,26.89,6.5Z"/><path class="cls-2" d="M34.66,3.53a14.23,14.23,0,0,0-2.91,2.89,9.09,9.09,0,0,0-2.07,5.21c0,.13,0,.26,0,.39,0,.63.11.71.63.37a9.44,9.44,0,0,0,1.38-1.07,12.23,12.23,0,0,0,3.54-7.48c0-.18.1-.42-.09-.52S34.8,3.43,34.66,3.53Z"/><path class="cls-2" d="M3.52.42A17.17,17.17,0,0,0,8.09,1.59,10.21,10.21,0,0,0,14.85.22c.14-.09.2-.16.2-.22H2.6C3,.18,3.25.31,3.52.42Z"/><path class="cls-2" d="M.31,17.84c.24-.54.48-1.09.67-1.66,1.11-3.34.57-6.55-.71-9.72C.22,6.33.16,6.16,0,6.14v12.1C.1,18.22.19,18.1.31,17.84Z"/><path class="cls-2" d="M4.87,5.31a8.86,8.86,0,0,0,4.3,1.2c.63,0,.69-.09.4-.63a5.8,5.8,0,0,0-1-1.37,11.13,11.13,0,0,0-5.46-3A8.15,8.15,0,0,0,.3,1.08c.08.15.11.22.15.28a2.7,2.7,0,0,0,.22.33A13.51,13.51,0,0,0,4.87,5.31Z"/><path class="cls-2" d="M5.41,12.25c.23.17.5.48.77.36s0-.48.07-.74a1,1,0,0,0,0-.26,7.22,7.22,0,0,0-.11-1.19,12.58,12.58,0,0,0-5-7C1,3.35.92,3.21.78,3.31s-.09.24-.07.37A15.07,15.07,0,0,0,1,5.56,11.39,11.39,0,0,0,5.41,12.25Z"/><path class="cls-2" d="M32.93,35.88a16.32,16.32,0,0,0-7.19-1.37,8.87,8.87,0,0,0-4.41,1.38.5.5,0,0,0-.23.23H33.36A3.79,3.79,0,0,0,32.93,35.88Z"/><path class="cls-2" d="M35.81,19.18a10.34,10.34,0,0,0-1.15,5.08,13.61,13.61,0,0,0,1.27,6.16c0,.11.08.26.19.31v-12C35.94,18.81,35.88,19,35.81,19.18Z"/><path class="cls-2" d="M30.92,24.76c-.27-.2-.58-.62-.9-.44s-.12.63-.12,1a7,7,0,0,0,.76,3,13,13,0,0,0,4.16,5c.17.13.31.44.55.27s.11-.43.07-.64c-.17-.81-.31-1.63-.55-2.42A10.75,10.75,0,0,0,30.92,24.76Z"/><path class="cls-2" d="M33.11,32.79A10.85,10.85,0,0,0,27,30.34c-.14.16-.85-.28-.51.42a7.47,7.47,0,0,0,2.72,2.94,13.87,13.87,0,0,0,6.06,2.1c.19,0,.45.19.56,0s-.13-.37-.27-.52A17.36,17.36,0,0,0,33.11,32.79Z"/><path class="cls-2" d="M14.86,36a7.55,7.55,0,0,0-2.3-1,13.39,13.39,0,0,0-7.45.26,9.48,9.48,0,0,0-2.4.91H15A.52.52,0,0,0,14.86,36Z"/><path class="cls-2" d="M.36,30.44c.08-.16.15-.34.22-.51a17.35,17.35,0,0,0,1.11-4.36A10.19,10.19,0,0,0,.53,19.14c-.11-.17-.18-.41-.41-.42a.23.23,0,0,0-.12,0v12a.15.15,0,0,0,.08,0C.26,30.76.29,30.57.36,30.44Z"/><path class="cls-2" d="M1,33.55c.14.07.24-.08.34-.15A13,13,0,0,0,4.2,30.74a9.06,9.06,0,0,0,2.28-5.41c0-.13,0-.27,0-.4s.11-.51-.12-.63-.43.13-.63.27a10.52,10.52,0,0,0-3.85,4.88,12.45,12.45,0,0,0-.94,3.69C.92,33.28.86,33.47,1,33.55Z"/><path class="cls-2" d="M9.29,30.36H9A12.18,12.18,0,0,0,.68,35.5c-.07.09-.17.18-.08.29s.24.07.37.06a15,15,0,0,0,5.25-1.56,8.1,8.1,0,0,0,3.52-3.21C10.12,30.39,10.08,30.34,9.29,30.36Z"/><path class="cls-2" d="M15.4,17.65a6.92,6.92,0,0,1-2.07.92,16,16,0,0,1-5.49.83,10.08,10.08,0,0,1-4.58-1.26c-.36-.2-.3-.36,0-.56a9,9,0,0,1,4.39-1.45,16.19,16.19,0,0,1,7.21,1.24A5.67,5.67,0,0,1,15.4,17.65Z"/><path class="cls-2" d="M20.66,17.77a9,9,0,0,1,2.51-1,13.58,13.58,0,0,1,7.45-.26,7.8,7.8,0,0,1,2.3,1c.23.16.27.25,0,.42a10.15,10.15,0,0,1-6.76,1.37,17.05,17.05,0,0,1-4.57-1.16C21.31,18.08,21,17.94,20.66,17.77Z"/><path class="cls-2" d="M16.38,30.4a16,16,0,0,1,1.35-6.29c.06-.14.11-.31.27-.32s.27.18.33.33A13.66,13.66,0,0,1,19,33.84c-.19.57-.43,1.12-.67,1.66s-.41.56-.72,0A8.9,8.9,0,0,1,16.38,31C16.37,30.77,16.38,30.59,16.38,30.4Z"/><path class="cls-2" d="M16.6,5.74A10.34,10.34,0,0,1,17.75.66c.09-.2.15-.48.43-.46s.3.24.4.42a10.13,10.13,0,0,1,1.17,6.43,17.35,17.35,0,0,1-1.11,4.36c-.07.17-.14.35-.22.51s-.1.32-.29.32-.2-.21-.26-.34A13.61,13.61,0,0,1,16.6,5.74Z"/><path class="cls-2" d="M8.83,24.16c-.19-.05-.57.15-.71-.11s.17-.51.32-.74a9.54,9.54,0,0,1,4.86-3.68,15.33,15.33,0,0,1,3.54-.9c.22,0,.55-.15.66.1s-.19.37-.32.55a12.31,12.31,0,0,1-5,4A8,8,0,0,1,8.83,24.16Z"/><path class="cls-2" d="M11.84,6.76c0-.33-.16-.8.12-1s.63.24.9.44a10.75,10.75,0,0,1,4,5.72c.24.79.38,1.61.55,2.42,0,.21.13.5-.07.64s-.38-.14-.55-.27A13.11,13.11,0,0,1,12.6,9.8,7,7,0,0,1,11.84,6.76Z"/><path class="cls-2" d="M11.62,29.29a9.06,9.06,0,0,1,2.07-5.21,14.23,14.23,0,0,1,2.91-2.89c.14-.1.3-.31.48-.21s.11.34.09.52A12.23,12.23,0,0,1,13.63,29a9.6,9.6,0,0,1-1.38,1.07c-.52.34-.62.26-.63-.37Z"/><path class="cls-2" d="M18.36,18.74a8,8,0,0,1,2.83.43,11.13,11.13,0,0,1,5.46,3,5.8,5.8,0,0,1,1,1.37c.29.54.23.62-.4.63a8.86,8.86,0,0,1-4.3-1.2,13.51,13.51,0,0,1-4.2-3.62,3.78,3.78,0,0,1-.22-.33C18.47,19,18.44,18.89,18.36,18.74Z"/><path class="cls-2" d="M8.9,11.82a10.85,10.85,0,0,1,6.15,2.45,18,18,0,0,1,2.42,2.44c.13.15.34.33.26.52s-.37.08-.56.05a13.87,13.87,0,0,1-6.06-2.1,7.47,7.47,0,0,1-2.72-2.94C8.05,11.54,8.76,12,8.9,11.82Z"/><path class="cls-2" d="M24.32,29.27a1,1,0,0,1,0,.26c0,.25.17.62-.07.74s-.54-.19-.77-.36a11.39,11.39,0,0,1-4.38-6.69,13.43,13.43,0,0,1-.32-1.88c0-.13-.06-.29.07-.37s.25,0,.34.12a12.59,12.59,0,0,1,5,7A7.33,7.33,0,0,1,24.32,29.27Z"/><path class="cls-2" d="M24.54,6.81a9.06,9.06,0,0,1-2.28,5.41,13,13,0,0,1-2.83,2.66c-.1.07-.2.22-.34.15s-.11-.27-.1-.41a12.78,12.78,0,0,1,1-3.69,10.52,10.52,0,0,1,3.85-4.88c.2-.14.38-.4.63-.27s.1.42.12.63S24.54,6.68,24.54,6.81Z"/><path class="cls-2" d="M27.35,11.84c.79,0,.83,0,.45.72a8.1,8.1,0,0,1-3.52,3.21A15,15,0,0,1,19,17.33c-.13,0-.28.06-.37-.06s0-.2.08-.29A12.18,12.18,0,0,1,27,11.84Z"/></g></svg>