<svg xmlns="http://www.w3.org/2000/svg" viewBox="0 0 19.79 19.63"><defs><style>.cls-1{fill:#bbbdbf;}</style></defs><g id="Layer_2" data-name="Layer 2"><g id="patt_8" data-name="patt 8"><g id="Layer_2-2" data-name="Layer 2"><g id="Pattern_Editing_Mode" data-name="Pattern Editing Mode"><path class="cls-1" d="M.12,9.71c0-2.59-.15-6.8,2.43-6.48,1,.12,1.23,1.83-.43,2.16S.12,9.71.12,9.71Z"/><path class="cls-1" d="M.12,9.71c2.59,0,6.85.17,6.54-2.42-.12-1-1.83-1.22-2.16.43S.12,9.71.12,9.71Z"/><path class="cls-1" d="M.12,9.94c2.59,0,6.85-.18,6.54,2.41-.12,1-1.83,1.22-2.16-.43S.12,9.94.12,9.94Z"/><path class="cls-1" d="M.12,9.94c0,2.59-.15,6.8,2.43,6.48,1-.13,1.23-1.84-.43-2.16S.12,9.94.12,9.94Z"/><path class="cls-1" d="M9.81,19.53c0-2.59.16-6.8-2.43-6.48-1,.12-1.22,1.84.43,2.16S9.81,19.53,9.81,19.53Z"/><path class="cls-1" d="M10,19.53c0-2.59-.15-6.8,2.43-6.48,1,.12,1.22,1.84-.43,2.16S10,19.53,10,19.53Z"/><path class="cls-1" d="M10,19.53c2.6,0,6.85.16,6.54-2.42-.12-1-1.83-1.23-2.16.43S10,19.53,10,19.53Z"/><path class="cls-1" d="M9.82,19.54c-2.59,0-6.8.15-6.48-2.43.12-1,1.84-1.23,2.16.43S9.82,19.54,9.82,19.54Z"/><path class="cls-1" d="M10,.13c2.59,0,6.85-.17,6.54,2.42-.12,1-1.83,1.22-2.16-.43S10,.13,10,.13Z"/><path class="cls-1" d="M10,.13c0,2.6-.15,6.8,2.43,6.48,1-.12,1.23-1.83-.43-2.16S10,.13,10,.13Z"/><path class="cls-1" d="M9.82.13c0,2.6.15,6.8-2.43,6.48-1-.12-1.23-1.83.43-2.16S9.82.13,9.82.13Z"/><path class="cls-1" d="M9.83.12C7.23.08,3,0,3.34,2.55c.12,1,1.84,1.22,2.16-.43S9.83.12,9.83.12Z"/><path class="cls-1" d="M19.71,9.72c0-2.59.16-6.8-2.43-6.48-1,.12-1.22,1.83.43,2.16S19.71,9.72,19.71,9.72Z"/><path class="cls-1" d="M19.71,9.94c0,2.59.16,6.79-2.43,6.48-1-.13-1.22-1.84.43-2.16S19.71,9.94,19.71,9.94Z"/><path class="cls-1" d="M19.72,9.94c-2.59,0-6.8-.16-6.48,2.43.12,1,1.84,1.22,2.16-.43S19.72,9.94,19.72,9.94Z"/><path class="cls-1" d="M19.72,9.73c-2.59,0-6.8.15-6.48-2.43.12-1,1.84-1.22,2.16.43S19.72,9.73,19.72,9.73Z"/><path class="cls-1" d="M10.76,7.44a.83.83,0,0,1-1.66.12V7.44a10.86,10.86,0,0,1,.83-2.12A10.36,10.36,0,0,1,10.76,7.44Z"/><path class="cls-1" d="M9.1,12.15A.83.83,0,0,1,10.76,12v.12a10.31,10.31,0,0,1-.82,2.11A10.16,10.16,0,0,1,9.1,12.15Z"/><path class="cls-1" d="M19.79,4.57A10.13,10.13,0,0,1,19,2.45a.84.84,0,0,1,.83-.83Z"/><path class="cls-1" d="M19.79,15.08A10.13,10.13,0,0,0,19,17.2a.84.84,0,0,0,.83.83Z"/><path class="cls-1" d="M0,4.57A10.13,10.13,0,0,0,.83,2.45.83.83,0,0,0,0,1.62Z"/><path class="cls-1" d="M0,15.08A10.13,10.13,0,0,1,.83,17.2.83.83,0,0,1,0,18Z"/><path class="cls-1" d="M7.46,9a.83.83,0,1,1,0,1.66,10.13,10.13,0,0,1-2.12-.83A10.13,10.13,0,0,1,7.46,9Z"/><path class="cls-1" d="M12.4,10.62A.83.83,0,1,1,12.4,9h0a10.13,10.13,0,0,1,2.12.83A10.13,10.13,0,0,1,12.4,10.62Z"/><path class="cls-1" d="M4.66,0A10.13,10.13,0,0,1,2.54.83.83.83,0,0,1,1.73,0Z"/><path class="cls-1" d="M15.16,0a10.86,10.86,0,0,0,2.12.83A.83.83,0,0,0,18.11,0Z"/><path class="cls-1" d="M4.66,19.63a10.13,10.13,0,0,0-2.12-.83.82.82,0,0,0-.81.83Z"/><path class="cls-1" d="M15.16,19.63a10.86,10.86,0,0,1,2.12-.83.83.83,0,0,1,.83.83Z"/></g></g></g></g></svg>