<svg xmlns="http://www.w3.org/2000/svg" viewBox="0 0 15.84 19.83"><defs><style>.cls-1{fill:#075066;fill-rule:evenodd;}</style></defs><g id="Layer_2" data-name="Layer 2"><g id="patt_4_element" data-name="patt 4 element"><path class="cls-1" d="M3.71,8.85a3.4,3.4,0,0,0,0,3.22c1,2.09,3.65,4.26,4.27,7.76.66-3.5,3.3-5.67,4.3-7.76a3.35,3.35,0,0,0,0-3.22c-1-2.1-3.64-4.27-4.3-7.76C7.36,4.58,4.72,6.75,3.71,8.85Zm1.44.54a2.24,2.24,0,0,0,0,2.13A17,17,0,0,1,8,16.68a17.67,17.67,0,0,1,2.87-5.16,2.29,2.29,0,0,0,0-2.13A17.67,17.67,0,0,1,8,4.23,17,17,0,0,1,5.15,9.39Z"/><path class="cls-1" d="M.92,7.8a5.61,5.61,0,0,0,0,5.31c1,2.06,2.91,4.15,4.54,6.72H6.62C5.15,17,3,14.82,1.93,12.73a4.92,4.92,0,0,1,0-4.54c1-2.1,3.22-4.27,4.69-7.1H5.46C3.83,3.65,1.89,5.74.92,7.8Zm8.3,12h1.16C12,17.26,14,15.17,14.92,13.11a5.61,5.61,0,0,0,0-5.31C14,5.74,12,3.65,10.38,1.09H9.22c1.47,2.83,3.65,5,4.69,7.1a4.92,4.92,0,0,1,0,4.54C12.87,14.82,10.69,17,9.22,19.83Z"/><path class="cls-1" d="M.92,9.35a1.13,1.13,0,0,1,0,2.21A1.12,1.12,0,0,1,0,10.25,1.13,1.13,0,0,1,.92,9.35Z"/><path class="cls-1" d="M14.92,9.35a1.12,1.12,0,0,1,0,2.21,1.12,1.12,0,0,1-.9-1.31A1.14,1.14,0,0,1,14.92,9.35Z"/><path class="cls-1" d="M5.53,0A1.09,1.09,0,0,1,6.66,1.05v0a1.13,1.13,0,0,1-2.21,0A1.08,1.08,0,0,1,5.53,0Z"/><path class="cls-1" d="M10.31,0a1.08,1.08,0,0,1,1.08,1.09A1.11,1.11,0,0,1,10.08,2a1.12,1.12,0,0,1-.9-.89A1.09,1.09,0,0,1,10.27,0Z"/></g></g></svg>