<svg xmlns="http://www.w3.org/2000/svg" viewBox="0 0 19.93 19.91"><defs><style>.cls-1{fill:#035068;}</style></defs><g id="Layer_2" data-name="Layer 2"><g id="patt_1" data-name="patt 1"><g id="Layer_2-2" data-name="Layer 2"><g id="Layer_1-2" data-name="Layer 1-2"><path class="cls-1" d="M10.21,10.2,9.7,9.75s2.56-3.55,1.23-5.54a2.57,2.57,0,0,1-.33-2.69A1.9,1.9,0,0,1,13.15.67a1.64,1.64,0,0,1,.22.14,3.4,3.4,0,0,1,1.44,2.5c.15,2.27-2.34,4.76-4.53,6.82Zm2.12-9.1a1.32,1.32,0,0,0-1.13.72,1.87,1.87,0,0,0,.28,2,4.51,4.51,0,0,1-.07,4.24c1.55-1.6,2.84-3.24,2.77-4.71a2.67,2.67,0,0,0-1.22-2A1,1,0,0,0,12.33,1.1Z"/><path class="cls-1" d="M7.42,12.11,9.74,9.73c1.87-1.93,4.43-4.56,6.73-4.56a3.4,3.4,0,0,1,2.69,1.49,1.72,1.72,0,0,1,.19,1.87,2.38,2.38,0,0,1-3.27.81l-.32-.23a2.64,2.64,0,0,0-1.47-.39,9,9,0,0,0-4.12,1.52Zm6.94-4a3.2,3.2,0,0,1,1.8.49A2.39,2.39,0,0,0,17.5,9a1.41,1.41,0,0,0,1.35-.78,1.1,1.1,0,0,0-.11-1.17,2.8,2.8,0,0,0-2.2-1.22c-1.5,0-3.21,1.34-4.73,2.78A7,7,0,0,1,14.36,8.07Z"/><path class="cls-1" d="M15.34,4.67,15.5,4c.11-.42,1.12-4,2.84-4a1.6,1.6,0,0,1,1.22.7A1.35,1.35,0,0,1,19.86,2c-.45,1.47-3.59,2.43-3.94,2.52Zm3-4c-.75,0-1.56,1.59-2,3C17.5,3.19,19,2.45,19.21,1.74A.62.62,0,0,0,19,1.08a1,1,0,0,0-.7-.41Z"/><path class="cls-1" d="M16.46,14.8c-2.22,0-4.58-2.44-6.73-4.58h0l.44-.51a8.58,8.58,0,0,0,4.15,1.6,2.31,2.31,0,0,0,1.34-.39,2.39,2.39,0,0,1,3.36.27,2.35,2.35,0,0,1,.23.32,1.72,1.72,0,0,1-.17,1.87A3.37,3.37,0,0,1,16.46,14.8Zm-4.59-3.42c1.55,1.49,3.16,2.77,4.59,2.77a2.68,2.68,0,0,0,2.13-1.22,1,1,0,0,0,.11-1.16A1.4,1.4,0,0,0,17.36,11a2.34,2.34,0,0,0-1.35.46,3.19,3.19,0,0,1-1.77.5A6.92,6.92,0,0,1,11.87,11.38Z"/><path class="cls-1" d="M12.22,19.57A2,2,0,0,1,10.5,18.5a2.57,2.57,0,0,1,.32-2.69c1.34-2-1.1-5.63-1.13-5.67L7.81,7.45l2.4,2.25c1.91,1.92,4.69,4.56,4.6,6.94a3.42,3.42,0,0,1-1.48,2.56A1.71,1.71,0,0,1,12.22,19.57Zm-.92-7.83a4.81,4.81,0,0,1,0,4.43,1.93,1.93,0,0,0-.28,2,1.23,1.23,0,0,0,1.64.56l.14-.08A2.83,2.83,0,0,0,14,16.6C14.17,15.07,12.8,13.3,11.3,11.74Z"/><path class="cls-1" d="M18.33,19.88c-1.69,0-2.78-3.59-2.9-4l-.17-.58.58.16c.37.09,3.72,1,4,2.57a1.48,1.48,0,0,1-.66,1.49A1.39,1.39,0,0,1,18.33,19.88Zm-2.06-3.59c.47,1.35,1.34,2.92,2.06,2.92a.79.79,0,0,0,.48-.2c.52-.43.46-.73.43-.82C19.09,17.49,17.69,16.75,16.27,16.29Z"/><path class="cls-1" d="M7.62,19.48h0a1.79,1.79,0,0,1-1.07-.36A3.48,3.48,0,0,1,5.09,16.6C5,14.34,7.47,11.92,9.66,9.78h0l.51.44S7.62,13.77,9,15.77a2.57,2.57,0,0,1,.32,2.69A2,2,0,0,1,7.62,19.48Zm.9-7.62C7,13.45,5.69,15.11,5.76,16.56a2.79,2.79,0,0,0,1.21,2,1.08,1.08,0,0,0,.65.22h0a1.37,1.37,0,0,0,1.13-.72,1.89,1.89,0,0,0-.28-1.95A4.48,4.48,0,0,1,8.52,11.86Z"/><path class="cls-1" d="M3.43,14.8A3.48,3.48,0,0,1,.74,13.3a1.75,1.75,0,0,1-.21-1.91,2.39,2.39,0,0,1,3.25-.87,2.62,2.62,0,0,1,.34.24,2.64,2.64,0,0,0,1.47.41A9.22,9.22,0,0,0,9.77,9.69l.43.51C8.33,12.11,5.77,14.8,3.43,14.8Zm-1-3.9a1.39,1.39,0,0,0-1.35.78,1.07,1.07,0,0,0,.11,1.17,2.67,2.67,0,0,0,2.19,1.23c1.51,0,3.22-1.34,4.72-2.79a6.89,6.89,0,0,1-2.57.59h0a3.18,3.18,0,0,1-1.84-.53A2.41,2.41,0,0,0,2.43,10.9Z"/><path class="cls-1" d="M1.6,19.91a1.59,1.59,0,0,1-1.22-.69,1.36,1.36,0,0,1-.3-1.28c.45-1.47,3.58-2.42,4-2.52l.56-.17-.15.57C4.34,16.24,3.33,19.91,1.6,19.91Zm2-3.66c-1.19.43-2.69,1.17-2.9,1.9a.61.61,0,0,0,.19.68,1,1,0,0,0,.69.45C2.36,19.24,3.17,17.65,3.62,16.25Z"/><path class="cls-1" d="M9.77,10.21a8.68,8.68,0,0,0-4.14-1.6A2.47,2.47,0,0,0,4.28,9a3.06,3.06,0,0,1-1.68.58h0a2.09,2.09,0,0,1-2-1.17A1.72,1.72,0,0,1,.82,6.54,3.41,3.41,0,0,1,3.51,5.07c2.22,0,4.59,2.44,6.73,4.57h0ZM3.49,5.74A2.71,2.71,0,0,0,1.36,7a1.13,1.13,0,0,0-.12,1.12,1.43,1.43,0,0,0,1.35.78h0a2.33,2.33,0,0,0,1.34-.46,3.08,3.08,0,0,1,1.7-.45,6.54,6.54,0,0,1,2.46.56C6.53,7,4.91,5.74,3.49,5.74Z"/><path class="cls-1" d="M9.74,10.18C7.17,7.69,5.06,5.46,5.18,3.26A3.49,3.49,0,0,1,6.74.69a1.63,1.63,0,0,1,1-.37,2,2,0,0,1,1.7,1A2.58,2.58,0,0,1,9.11,4c-1.34,2,1.1,5.6,1.13,5.65ZM7.73,1a1.06,1.06,0,0,0-.65.22A2.81,2.81,0,0,0,5.86,3.3C5.77,4.82,7.2,6.58,8.64,8.14a4.83,4.83,0,0,1,0-4.41,1.89,1.89,0,0,0,.28-2A1.32,1.32,0,0,0,7.73,1Z"/><path class="cls-1" d="M4.69,4.57l-.64-.14c-.32-.1-3.66-1-4-2.57A1.48,1.48,0,0,1,.72.36,1.3,1.3,0,0,1,1.62,0C3.3,0,4.4,3.59,4.52,4ZM1.62.67a1,1,0,0,0-.49.2c-.51.48-.45.74-.43.84.15.68,1.55,1.42,3,1.9C3.22,2.29,2.38.67,1.62.67Z"/></g></g></g></g></svg>