<svg xmlns="http://www.w3.org/2000/svg" viewBox="0 0 19.9 19.91"><defs><style>.cls-1{fill:#808184;}</style></defs><g id="Layer_2" data-name="Layer 2"><g id="patt_2" data-name="patt 2"><g id="Layer_2-2" data-name="Layer 2"><g id="Layer_1-2" data-name="Layer 1-2"><path class="cls-1" d="M10,10.21V9.72s3.22-.53,3.56-2.29a1.93,1.93,0,0,1,1.25-1.59,1.43,1.43,0,0,1,1.78,1,.56.56,0,0,1,0,.12A2.62,2.62,0,0,1,16.05,9c-1.14,1.25-3.72,1.22-6,1.18Zm5.9-3.68a1,1,0,0,0-1-.22,1.44,1.44,0,0,0-.91,1.23,3.38,3.38,0,0,1-2.26,2.18c1.65,0,3.21-.21,3.93-1A2,2,0,0,0,16.05,7,.79.79,0,0,0,15.85,6.53Z"/><path class="cls-1" d="M7.47,9.75H10c2,0,4.74-.06,6,1.16a2.55,2.55,0,0,1,.67,2.23,1.32,1.32,0,0,1-.9,1.08,1.77,1.77,0,0,1-2.15-1.28,1.57,1.57,0,0,1,0-.3,2,2,0,0,0-.56-1,6.78,6.78,0,0,0-3-1.4Zm5.81,1.51A2.43,2.43,0,0,1,14,12.51a1.84,1.84,0,0,0,.45.93,1.08,1.08,0,0,0,1.09.27.85.85,0,0,0,.54-.66,2.07,2.07,0,0,0-.52-1.82c-.79-.78-2.4-1-4-1A5.25,5.25,0,0,1,13.28,11.26Z"/><path class="cls-1" d="M15.57,10,16,9.82c.29-.16,2.75-1.56,3.65-.66a1.17,1.17,0,0,1,.28,1,1,1,0,0,1-.51.83c-1,.54-3.16-.61-3.42-.74Zm3.68-.52c-.4-.4-1.66,0-2.63.51.85.4,2,.79,2.51.53a.48.48,0,0,0,.25-.44.74.74,0,0,0-.13-.64Z"/><path class="cls-1" d="M10.8,15.94C9.64,14.77,9.67,12.25,9.71,10V10h.49a6.73,6.73,0,0,0,1.34,3,1.88,1.88,0,0,0,1,.53,1.78,1.78,0,0,1,1.6,1.93,2,2,0,0,1-.05.26,1.32,1.32,0,0,1-1.08.9A2.55,2.55,0,0,1,10.8,15.94Zm-.6-4.23c0,1.61.21,3.12,1,3.87a2,2,0,0,0,1.77.5.81.81,0,0,0,.67-.57,1.08,1.08,0,0,0-.27-1.09,1.84,1.84,0,0,0-.93-.45,2.32,2.32,0,0,1-1.21-.67A5,5,0,0,1,10.2,11.71Z"/><path class="cls-1" d="M6.07,16.21a1.49,1.49,0,0,1-.34-1.47,1.93,1.93,0,0,1,1.59-1.26c1.77-.34,2.39-3.54,2.39-3.57l.46-2.45V10c0,2.06.07,4.86-1.25,6a2.63,2.63,0,0,1-2.14.58A1.3,1.3,0,0,1,6.07,16.21ZM9.71,11.6A3.55,3.55,0,0,1,7.42,14a1.44,1.44,0,0,0-1.22.91A.92.92,0,0,0,6.79,16l.09,0a2.17,2.17,0,0,0,1.75-.45C9.47,14.87,9.67,13.21,9.71,11.6Z"/><path class="cls-1" d="M9.12,19.59c-.88-.88.43-3.35.58-3.63l.22-.39.22.38c.15.26,1.42,2.5.78,3.5a1.08,1.08,0,0,1-1.13.43A1,1,0,0,1,9.12,19.59Zm.81-3c-.44.94-.86,2.21-.45,2.62a.54.54,0,0,0,.36.14c.5,0,.62-.14.66-.2.28-.41-.06-1.54-.57-2.53Z"/><path class="cls-1" d="M3.7,13.74h0A1.22,1.22,0,0,1,3.33,13a2.57,2.57,0,0,1,.55-2.1C5,9.64,7.61,9.67,9.89,9.71H10v.49s-3.22.53-3.56,2.29a2,2,0,0,1-1.22,1.56A1.49,1.49,0,0,1,3.7,13.74ZM8.19,10.2c-1.65,0-3.21.22-3.93,1a2,2,0,0,0-.43,1.71.77.77,0,0,0,.22.46H4a1,1,0,0,0,1,.22,1.41,1.41,0,0,0,.91-1.21A3.38,3.38,0,0,1,8.19,10.2Z"/><path class="cls-1" d="M4,9a2.54,2.54,0,0,1-.66-2.23,1.31,1.31,0,0,1,.86-1.07A1.77,1.77,0,0,1,6.37,7a1.57,1.57,0,0,1,0,.3,2,2,0,0,0,.56,1,6.78,6.78,0,0,0,3,1.4v.5C8,10.24,5.21,10.27,4,9ZM5.48,6.48a1.08,1.08,0,0,0-1.09-.27.82.82,0,0,0-.56.67A2.05,2.05,0,0,0,4.34,8.7c.79.78,2.4,1,4,1a5,5,0,0,1-1.67-1h0a2.4,2.4,0,0,1-.7-1.25A1.84,1.84,0,0,0,5.48,6.48Z"/><path class="cls-1" d="M.3,10.8A1.21,1.21,0,0,1,0,9.8,1,1,0,0,1,.53,9c1-.54,3.17.61,3.42.74l.38.22L4,10.15C3.67,10.3,1.2,11.7.3,10.8Zm3-.87c-.86-.4-2-.79-2.52-.53a.48.48,0,0,0-.25.44.78.78,0,0,0,.13.61c.34.39,1.64,0,2.62-.52Z"/><path class="cls-1" d="M9.71,10A6.6,6.6,0,0,0,8.38,7a2,2,0,0,0-1-.53,2.21,2.21,0,0,1-1.19-.59h0a1.53,1.53,0,0,1-.39-1.68,1.28,1.28,0,0,1,1.08-.89A2.49,2.49,0,0,1,9.11,4c1.17,1.17,1.13,3.7,1.1,5.93V10Zm-1-5.71A2,2,0,0,0,7,3.84a.81.81,0,0,0-.66.56,1.08,1.08,0,0,0,.27,1.09h0a1.76,1.76,0,0,0,.94.45,2.32,2.32,0,0,1,1.2.67,5,5,0,0,1,1,1.59C9.69,6.59,9.51,5.08,8.76,4.33Z"/><path class="cls-1" d="M9.71,10c0-2.67,0-5,1.25-6a2.59,2.59,0,0,1,2.14-.57,1.22,1.22,0,0,1,.75.37,1.45,1.45,0,0,1,.34,1.47A1.91,1.91,0,0,1,12.6,6.43C10.83,6.77,10.21,10,10.2,10ZM13.5,4A.79.79,0,0,0,13,3.84a2.13,2.13,0,0,0-1.75.44c-.85.76-1,2.42-1.08,4A3.55,3.55,0,0,1,12.5,5.92,1.41,1.41,0,0,0,13.71,5,1,1,0,0,0,13.5,4Z"/><path class="cls-1" d="M10,4.34,9.81,4C9.63,3.71,8.36,1.46,9,.46A1.1,1.1,0,0,1,10.13,0a1,1,0,0,1,.66.29c.89.88-.43,3.36-.58,3.64ZM10.44.67a.54.54,0,0,0-.36-.14c-.5,0-.62.14-.66.2-.28.44.06,1.57.56,2.57C10.43,2.35,10.84,1.08,10.44.67Z"/></g></g></g></g></svg>