<svg xmlns="http://www.w3.org/2000/svg" viewBox="0 0 16.82 19.85"><defs><style>.cls-1{fill:#218f9b;}</style></defs><g id="Layer_2" data-name="Layer 2"><g id="patt_7_element" data-name="patt 7 element"><path class="cls-1" d="M9.84,9.86s3.65,2,7,0C14,7.79,9.84,9.86,9.84,9.86Z"/><path class="cls-1" d="M8.43,12.92s-2,3.62,0,6.93C10.46,16.9,8.43,12.92,8.43,12.92Z"/><path class="cls-1" d="M11.94,16.66c.31-3.14-3.1-5.32-3.1-5.32A6.66,6.66,0,0,0,11.94,16.66Z"/><path class="cls-1" d="M8.58,10.14A6.82,6.82,0,0,0,14,13.22C12.63,10.34,8.58,10.14,8.58,10.14Z"/><path class="cls-1" d="M7,9.86s-4.07-2.07-7,0C3.33,11.81,7,9.86,7,9.86Z"/><path class="cls-1" d="M8,11.34s-3.4,2.21-3.1,5.32A6.63,6.63,0,0,0,8,11.34Z"/><path class="cls-1" d="M2.89,13.22a6.78,6.78,0,0,0,5.37-3.08S4.19,10.34,2.89,13.22Z"/><path class="cls-1" d="M8.43,0c-2,3.32,0,6.92,0,6.92S10.46,2.89,8.43,0Z"/><path class="cls-1" d="M11.94,3.12a6.7,6.7,0,0,0-3.1,5.37S12.25,6.28,11.94,3.12Z"/><path class="cls-1" d="M14,6.58a6.77,6.77,0,0,0-5.38,3S12.63,9.44,14,6.58Z"/><path class="cls-1" d="M8,8.49a6.63,6.63,0,0,0-3.1-5.32C4.58,6.28,8,8.49,8,8.49Z"/><path class="cls-1" d="M2.89,6.58c1.3,2.86,5.35,3,5.35,3A6.78,6.78,0,0,0,2.89,6.58Z"/></g></g></svg>