<svg xmlns="http://www.w3.org/2000/svg" viewBox="0 0 10.43 19.97"><defs><style>.cls-1{fill:none;stroke:#0E8593;stroke-miterlimit:10;stroke-width:0.81px;}</style></defs><g id="Layer_2" data-name="Layer 2"><g id="patt_9_element" data-name="patt 9 element"><path class="cls-1" d="M1.34.52A9.7,9.7,0,0,0,.51,5.8C1,8.41,4.19,10.1,4.19,10.1S5.91,7,4.87,4.26A6.9,6.9,0,0,0,1.34.52Z"/><path class="cls-1" d="M9.09.52A9.7,9.7,0,0,1,9.92,5.8c-.47,2.61-3.68,4.3-3.68,4.3S4.52,7,5.57,4.26A6.86,6.86,0,0,1,9.09.52Z"/><path class="cls-1" d="M1.34,19.45a9.7,9.7,0,0,1-.83-5.28c.47-2.61,3.68-4.3,3.68-4.3s1.72,3.09.68,5.84A6.9,6.9,0,0,1,1.34,19.45Z"/><path class="cls-1" d="M9.09,19.45a9.7,9.7,0,0,0,.83-5.28c-.47-2.61-3.68-4.3-3.68-4.3S4.52,13,5.57,15.71A6.86,6.86,0,0,0,9.09,19.45Z"/></g></g></svg>