<?xml version="1.0" encoding="UTF-8" standalone="no"?>
<svg
   xmlns:dc="http://purl.org/dc/elements/1.1/"
   xmlns:cc="http://creativecommons.org/ns#"
   xmlns:rdf="http://www.w3.org/1999/02/22-rdf-syntax-ns#"
   xmlns:svg="http://www.w3.org/2000/svg"
   xmlns="http://www.w3.org/2000/svg"
   xmlns:sodipodi="http://sodipodi.sourceforge.net/DTD/sodipodi-0.dtd"
   xmlns:inkscape="http://www.inkscape.org/namespaces/inkscape"
   version="1.1"
   id="Layer_1"
   x="0px"
   y="0px"
   viewBox="0 0 19.8 9.9"
   style="enable-background:new 0 0 19.8 9.9;"
   xml:space="preserve"
   sodipodi:docname="announcement_pattern.svg"
   inkscape:version="1.0.1 (3bc2e813f5, 2020-09-07)"><metadata
   id="metadata576"><rdf:RDF><cc:Work
       rdf:about=""><dc:format>image/svg+xml</dc:format><dc:type
         rdf:resource="http://purl.org/dc/dcmitype/StillImage" /></cc:Work></rdf:RDF></metadata><defs
   id="defs574" /><sodipodi:namedview
   pagecolor="#ffffff"
   bordercolor="#666666"
   borderopacity="1"
   objecttolerance="10"
   gridtolerance="10"
   guidetolerance="10"
   inkscape:pageopacity="0"
   inkscape:pageshadow="2"
   inkscape:window-width="1920"
   inkscape:window-height="1017"
   id="namedview572"
   showgrid="false"
   inkscape:zoom="52.626265"
   inkscape:cx="9.8999996"
   inkscape:cy="4.1899231"
   inkscape:window-x="-8"
   inkscape:window-y="-8"
   inkscape:window-maximized="1"
   inkscape:current-layer="Layer_1" />
<style
   type="text/css"
   id="style463">
	.st0{fill:#FFFFFF;}
</style>
<g
   id="g569"
   transform="matrix(1,0,0,-1,0,9.8375)">
	<path
   class="st0"
   d="m 11.6,0.3 c 0,0 0,0 0,0 0.1,0 0.1,0 0.2,0 -0.1,0 -0.2,0 -0.2,0 z"
   id="path465" />
	<path
   class="st0"
   d="m 14.1,0 c 0,0 0,0 0,0 V 0 C 14,0 14,0 14.1,0 Z"
   id="path467" />
	<path
   class="st0"
   d="m 15.5,1.4 c 0.4,0.5 0.6,1.1 0.4,1.7 0,0 0,0.1 0,0.1 -0.2,0.5 -0.7,0.7 -1.2,0.6 -0.5,-0.2 -0.9,-0.7 -0.9,-1.2 -0.3,-1.1 -1.2,-2 -2.3,-2.3 -0.5,0 -0.9,0 -1.4,0 0,0 0,0 0,0.1 0.8,0.2 2.9,0.9 3.2,2.3 0.2,0.7 0.7,1.3 1.4,1.5 0.5,0.2 1.1,0 1.5,-0.3 C 16.4,3.7 16.6,3.4 16.6,3.1 16.7,2.3 16.5,1.6 16,1 15.5,0.5 14.9,0.2 14.1,0 c -0.7,0.2 -1.5,0.2 -2.3,0.2 1.5,0.1 3.1,0.3 3.7,1.2 z"
   id="path469" />
	<path
   class="st0"
   d="m 10.2,0 c 0,0 0,0 0,0 v 0 c 0,0.1 0,0.2 0,0.3 0.5,0 0.9,0 1.4,0 0,0 0,0 0,0 0.1,0 0.1,0 0.2,0 0.8,0 1.6,-0.1 2.3,-0.2 0,0 0,0 0,0 h -3.9 z"
   id="path471" />
	<path
   class="st0"
   d="m 10.1,0 v 0 c 0.1,0 0.1,0 0,0 0.1,0.1 0.1,0.1 0,0 v 0 c 0.1,0 0.1,0 0,0 v 0 z"
   id="path473" />
	<polygon
   class="st0"
   points="10.1,0 "
   id="polygon475" />
	<path
   class="st0"
   d="m 19.3,0.1 c 0,0.1 -0.1,0.3 -0.1,0.4 -0.4,0.4 -1.7,0 -2.6,-0.5 0,0 0,0 0,0 h -1.1 v 0 l 0.4,0.2 c 0.3,0.2 2.8,1.5 3.6,0.6 0.2,-0.2 0.3,-0.4 0.3,-0.7 0,-0.1 0,-0.1 0,-0.2 h -0.5 c 0,0.2 0,0.2 0,0.2 z"
   id="path477" />
	<path
   class="st0"
   d="m 10.2,1.8 c 0.3,1.1 1.1,1.9 2.2,2.3 0.5,0.1 1,0.4 1.2,0.9 0.1,0.3 0,0.7 -0.2,1 -0.1,0.1 -0.3,0.2 -0.5,0.2 -0.6,0.1 -1.2,0 -1.7,-0.4 -0.8,-0.8 -1,-2.3 -1,-4 0,0.9 -0.1,1.7 -0.3,2.4 0.2,0.8 0.5,1.4 0.9,1.9 0.6,0.5 1.3,0.7 2.1,0.6 0.3,0 0.5,-0.2 0.7,-0.4 C 14,5.9 14.2,5.3 14,4.9 13.7,4.2 13.1,3.7 12.4,3.7 11,3.4 10.4,1.2 10.2,0.4 c 0,0 0,0 -0.1,0 0.1,0.4 0.1,0.9 0.1,1.4 z"
   id="path479" />
	<path
   class="st0"
   d="m 10.2,0.3 c 0,0 0,0 0,0 0,0 0,0 0,0 0,0 0,0 0,0 0,0 0,0 0,0 z"
   id="path481" />
	<path
   class="st0"
   d="m 10.2,0.3 c 0,0 0,0 0,0 0,-0.1 0,-0.2 0,-0.2 v 0 c 0,0.1 0,0.1 0,0.2 z"
   id="path483" />
	<path
   class="st0"
   d="m 10.2,0.1 v 0 c 0,0 0,0 0,0 0,0 0,0 0,0 z"
   id="path485" />
	<path
   class="st0"
   d="m 9.7,0.3 c -0.1,0 -0.1,0 0,0 C 9.3,1.3 8.9,2.2 8.3,3 8,3.2 7.7,3.4 7.3,3.5 7.2,3.5 7.1,3.5 7,3.6 6,3.8 5.5,4.8 5.7,5.7 5.9,6.2 6.3,6.5 6.8,6.6 7.6,6.8 8.4,6.5 9,6 9.4,5.6 9.7,4.9 9.9,4.2 9.7,3.1 9.7,1.6 9.7,0.3 Z M 8.6,5.7 C 8.2,6.1 7.5,6.3 6.8,6.2 6.5,6.2 6.2,5.9 6.1,5.6 6,5.2 6.1,4.8 6.5,4.5 6.7,4.3 7,4.1 7.4,4.1 7.8,4 8.3,3.7 8.6,3.4 c 0.5,-0.5 0.8,-1 1,-1.7 0,1.6 -0.2,3.2 -1,4 z"
   id="path487" />
	<path
   class="st0"
   d="m 10.2,1.9 c 0,-0.1 0,-0.1 0,0 0,-0.1 0,-0.1 0,0 0,-0.1 0,-0.1 0,0 z"
   id="path489" />
	<path
   class="st0"
   d="m 9.9,0.1 h 0.2 c 0,0 0,0 0,0 0,0 0,0 0,0 v 0 H 9.9 Z"
   id="path491" />
	<polygon
   class="st0"
   points="9.9,0 10.1,0 10.1,0 9.9,0 "
   id="polygon493" />
	<path
   class="st0"
   d="m 10.2,1.8 c 0,0 0,0 0,0 0,-0.5 0,-1 0,-1.5 0,0 0,0 0,0 L 9.7,2.5 V 0.3 c 0,0 0,0 0,0 0,1.3 0,2.7 0.2,3.9 0.2,-0.7 0.2,-1.5 0.3,-2.4 0,0 0,0 0,0 z"
   id="path495" />
	<path
   class="st0"
   d="m 9.9,0.3 v 0 c 0,0 0,0 0,0 -0.1,0 -0.2,0 -0.3,0 V 2.5 L 10,0.3 c 0.1,0 0,0 -0.1,0 0.1,0 0.1,0 0,0 z"
   id="path497" />
	<path
   class="st0"
   d="m 9.9,0.3 c 0.1,0 0.1,0 0,0 0.1,0 0.1,0 0,0 z"
   id="path499" />
	<path
   class="st0"
   d="m 10.1,0.3 c 0,0 0.1,0 0,0 0.1,0 0.1,0 0,0 0.1,0 0.1,0 0,0 z"
   id="path501" />
	<path
   class="st0"
   d="m 10,0.3 c 0,0 0.1,0 0.2,0 v 0 c -0.1,0 -0.2,0 -0.2,0 z"
   id="path503" />
	<path
   class="st0"
   d="m 9.9,0.3 c 0,0 0,0 0,0 v 0 c 0,0 0,0 0,0 z"
   id="path505" />
	<path
   class="st0"
   d="m 10.1,0.3 c 0.1,0 0.1,0 0,0 0,-0.1 0,-0.1 0,-0.2 z"
   id="path507" />
	<path
   class="st0"
   d="m 9.9,0.1 v 0.2 c 0,0 0,0 0,0 v 0 c 0,0 0,0 0,0 0.1,0 0.1,0 0.2,0 V 0.1 c 0,0 0,0 0,0 0,0 0,0 0,0 z"
   id="path509" />
	<path
   class="st0"
   d="M 9.9,5.6 9.7,6 C 9.5,6.3 8.4,8.4 8.9,9.4 c 0.2,0.3 0.5,0.5 0.8,0.5 0.4,0.1 0.7,0 1,-0.3 C 11.6,8.7 10.2,6.2 10,6 Z m 0.5,3.7 C 10.3,9.4 10,9.5 9.8,9.4 9.6,9.4 9.4,9.3 9.3,9.1 9.1,8.7 9.5,7.5 9.9,6.7 c 0.5,0.9 0.9,2.2 0.5,2.6 z"
   id="path511" />
	<path
   class="st0"
   d="M 8.2,0.3 C 7.6,0.5 7,0.8 6.6,1.2 6.3,1.5 6,1.9 5.9,2.4 5.9,2.7 5.7,3.1 5.5,3.3 5.2,3.6 4.7,3.7 4.3,3.6 4.1,3.5 3.9,3.3 3.8,3 3.7,2.4 3.8,1.7 4.3,1.2 5,0.5 6.4,0.3 8,0.2 7.2,0.2 6.5,0.2 5.9,0 H 5.6 C 4.9,0.2 4.4,0.4 4,0.8 3.4,1.4 3.2,2.2 3.3,3 3.4,3.5 3.7,4 4.2,4.1 4.8,4.3 5.4,4.1 5.8,3.7 6.1,3.4 6.3,3 6.4,2.5 6.5,2.2 6.7,1.8 6.9,1.6 7.7,1 8.6,0.6 9.5,0.3 c 0,0 0,-0.1 0,-0.1 C 9.1,0.3 8.6,0.3 8.2,0.3 Z"
   id="path513" />
	<path
   class="st0"
   d="m 9.7,0.3 c -0.1,0 -0.1,0 0,0 -0.1,0 -0.1,0 0,0 -0.1,0 -0.1,0 0,0 0,0 0,0 0,0 z"
   id="path515" />
	<polygon
   class="st0"
   points="9.9,0.1 9.9,0 9.9,0 9.9,0.1 "
   id="polygon517" />
	
		<rect
   x="9.8999996"
   y="0"
   transform="matrix(0.9971,-0.07554112,0.07554112,0.9971,0.02651264,0.7503)"
   class="st0"
   width="0"
   height="0"
   id="rect519" />
	<path
   class="st0"
   d="m 9.7,0.3 c 0,0 0,0 0,0 0,0 0,0 0,0 v 0 c 0,0 0,0 0,0 z"
   id="path521" />
	<path
   class="st0"
   d="m 9.9,0.3 v 0 c -0.1,0 -0.1,0 -0.2,0 V 0.4 C 9.8,0.3 9.8,0.3 9.9,0.3 c 0,0 0,0 0,0 z"
   id="path523" />
	<path
   class="st0"
   d="m 9.9,0.1 v 0.2 c 0,0 -0.1,0 -0.1,0 v 0 c 0,0 0,0 0,0 0,0 0,0 0,0 z"
   id="path525" />
	<path
   class="st0"
   d="m 9.9,0.1 v 0.2 c 0,0 0,0 0,0 v -0.2 0 z"
   id="path527" />
	<path
   class="st0"
   d="m 8,0.2 c 0.1,0 0.1,0 0.2,0 0,0 0,0 0,0 -0.1,0 -0.2,0 -0.2,0 z"
   id="path529" />
	<path
   class="st0"
   d="M 8.5,0 H 5.9 c 0.6,0.2 1.3,0.2 2.1,0.2 0.1,0 0.1,0 0.2,0 0,0 0,0 0,0 0.5,0 1,0 1.5,0 0,0 0,0 0,0 z"
   id="path531" />
	<path
   class="st0"
   d="M 9.7,0 H 8.5 L 9.6,0.2 C 9.6,0.1 9.7,0.1 9.7,0 Z"
   id="path533" />
	<path
   class="st0"
   d="m 9.6,0.2 c 0,0 0,0 0,0 0,0.1 0,0.1 0,0 0.1,0 0.1,0 0,0 z"
   id="path535" />
	<path
   class="st0"
   d="m 9.7,0.1 v 0 0 c 0,-0.1 0,-0.1 0,0 v 0 c 0,0 -0.1,0.1 -0.1,0.1 h 0.1 c 0,0 0,-0.1 0,-0.1 z"
   id="path537" />
	<path
   class="st0"
   d="m 9.7,0 c 0,0 0,0 0,0 v 0 0 z"
   id="path539" />
	
		<rect
   x="9.6999998"
   y="0"
   transform="matrix(0.9999,-0.01048893,0.01048893,0.9999,-7.450994e-5,0.1029)"
   class="st0"
   width="0.2"
   height="0"
   id="rect541" />
	<polygon
   class="st0"
   points="9.7,0 9.7,0 9.9,0 "
   id="polygon543" />
	
		<rect
   x="9.8999996"
   y="0"
   transform="matrix(0.9975,-0.07000328,0.07000328,0.9975,0.02084401,0.695)"
   class="st0"
   width="0"
   height="0"
   id="rect545" />
	<rect
   x="9.8999996"
   y="0"
   class="st0"
   width="0"
   height="0"
   id="rect547" />
	<path
   class="st0"
   d="m 9.7,0.2 v 0 c 0,0 0,0 0,0 0,0.1 0,0.1 0,0 z"
   id="path549" />
	<path
   class="st0"
   d="m 9.7,0.3 c 0.1,0 0.1,0 0.2,0 H 9.7 Z"
   id="path551" />
	<path
   class="st0"
   d="m 9.7,0.1 c 0,0 0,0.1 0,0.1 v 0 -0.1 z"
   id="path553" />
	<path
   class="st0"
   d="m 9.9,0.1 v 0 H 9.7 v 0.1 h 0.2 c 0,0 0.1,0 0.1,0 V 0.1 Z"
   id="path555" />
	<polygon
   class="st0"
   points="9.9,0.1 "
   id="polygon557" />
	<path
   class="st0"
   d="M 0.7,0.6 C 0.7,0.5 0.5,0.4 0.5,0 H 0 C 0,0.4 0.1,0.7 0.4,1 1.4,1.6 3.7,0.3 3.9,0.2 L 4.2,0 h -1 C 2.2,0.5 1.1,0.8 0.7,0.6 Z"
   id="path559" />
	<polygon
   class="st0"
   points="9.9,0 9.9,0 10.1,0 "
   id="polygon561" />
	<rect
   x="9.8999996"
   y="0"
   class="st0"
   width="0"
   height="0"
   id="rect563" />
	<polygon
   class="st0"
   points="9.7,0 "
   id="polygon565" />
	
		<rect
   x="9.8999996"
   y="0"
   transform="matrix(0.08391352,-0.9965,0.9965,0.08391352,9.0831,9.8974)"
   class="st0"
   width="0"
   height="0"
   id="rect567" />
</g>
</svg>
