<?xml version="1.0" encoding="utf-8"?>
<!-- Generator: Adobe Illustrator 25.4.1, SVG Export Plug-In . SVG Version: 6.00 Build 0)  -->
<svg version="1.1" id="Layer_1" xmlns="http://www.w3.org/2000/svg" xmlns:xlink="http://www.w3.org/1999/xlink" x="0px" y="0px"
	 viewBox="0 0 19.8 9.9" style="enable-background:new 0 0 19.8 9.9;" xml:space="preserve">
<style type="text/css">
	.st0{fill:#FFFFFF;}
</style>
<g>
	<path class="st0" d="M11.6,0.3C11.6,0.3,11.6,0.3,11.6,0.3c0.1,0,0.1,0,0.2,0C11.7,0.3,11.6,0.3,11.6,0.3z"/>
	<path class="st0" d="M14.1,0C14.1,0,14.1,0,14.1,0L14.1,0C14,0,14,0,14.1,0z"/>
	<path class="st0" d="M15.5,1.4c0.4,0.5,0.6,1.1,0.4,1.7c0,0,0,0.1,0,0.1c-0.2,0.5-0.7,0.7-1.2,0.6c-0.5-0.2-0.9-0.7-0.9-1.2
		c-0.3-1.1-1.2-2-2.3-2.3c-0.5,0-0.9,0-1.4,0c0,0,0,0,0,0.1c0.8,0.2,2.9,0.9,3.2,2.3C13.5,3.4,14,4,14.7,4.2c0.5,0.2,1.1,0,1.5-0.3
		c0.2-0.2,0.4-0.5,0.4-0.8C16.7,2.3,16.5,1.6,16,1c-0.5-0.5-1.1-0.8-1.9-1c-0.7,0.2-1.5,0.2-2.3,0.2C13.3,0.3,14.9,0.5,15.5,1.4z"/>
	<path class="st0" d="M10.2,0C10.2,0,10.2,0,10.2,0L10.2,0c0,0.1,0,0.2,0,0.3c0.5,0,0.9,0,1.4,0c0,0,0,0,0,0c0.1,0,0.1,0,0.2,0
		c0.8,0,1.6-0.1,2.3-0.2c0,0,0,0,0,0H10.2z"/>
	<path class="st0" d="M10.1,0L10.1,0C10.2,0,10.2,0,10.1,0C10.2,0.1,10.2,0.1,10.1,0L10.1,0C10.2,0,10.2,0,10.1,0L10.1,0L10.1,0z"/>
	<polygon class="st0" points="10.1,0 10.1,0 10.1,0 	"/>
	<path class="st0" d="M19.3,0.1c0,0.1-0.1,0.3-0.1,0.4c-0.4,0.4-1.7,0-2.6-0.5c0,0,0,0,0,0h-1.1l0,0l0.4,0.2
		c0.3,0.2,2.8,1.5,3.6,0.6c0.2-0.2,0.3-0.4,0.3-0.7c0-0.1,0-0.1,0-0.2h-0.5C19.3,0.1,19.3,0.1,19.3,0.1z"/>
	<path class="st0" d="M10.2,1.8c0.3,1.1,1.1,1.9,2.2,2.3c0.5,0.1,1,0.4,1.2,0.9c0.1,0.3,0,0.7-0.2,1c-0.1,0.1-0.3,0.2-0.5,0.2
		c-0.6,0.1-1.2,0-1.7-0.4C10.4,5,10.2,3.5,10.2,1.8c0,0.9-0.1,1.7-0.3,2.4c0.2,0.8,0.5,1.4,0.9,1.9c0.6,0.5,1.3,0.7,2.1,0.6
		c0.3,0,0.5-0.2,0.7-0.4C14,5.9,14.2,5.3,14,4.9c-0.3-0.7-0.9-1.2-1.6-1.2c-1.4-0.3-2-2.5-2.2-3.3c0,0,0,0-0.1,0
		C10.2,0.8,10.2,1.3,10.2,1.8z"/>
	<path class="st0" d="M10.2,0.3C10.2,0.3,10.2,0.3,10.2,0.3C10.2,0.3,10.2,0.3,10.2,0.3C10.2,0.3,10.2,0.3,10.2,0.3
		C10.2,0.3,10.2,0.3,10.2,0.3z"/>
	<path class="st0" d="M10.2,0.3C10.2,0.3,10.2,0.3,10.2,0.3c0-0.1,0-0.2,0-0.2l0,0C10.2,0.2,10.2,0.2,10.2,0.3z"/>
	<path class="st0" d="M10.2,0.1L10.2,0.1C10.2,0.1,10.2,0.1,10.2,0.1C10.2,0.1,10.2,0.1,10.2,0.1z"/>
	<path class="st0" d="M9.7,0.3C9.6,0.3,9.6,0.3,9.7,0.3C9.3,1.3,8.9,2.2,8.3,3C8,3.2,7.7,3.4,7.3,3.5c-0.1,0-0.2,0-0.3,0.1
		C6,3.8,5.5,4.8,5.7,5.7c0.2,0.5,0.6,0.8,1.1,0.9C7.6,6.8,8.4,6.5,9,6c0.4-0.4,0.7-1.1,0.9-1.8C9.7,3.1,9.7,1.6,9.7,0.3z M8.6,5.7
		C8.2,6.1,7.5,6.3,6.8,6.2c-0.3,0-0.6-0.3-0.7-0.6C6,5.2,6.1,4.8,6.5,4.5C6.7,4.3,7,4.1,7.4,4.1C7.8,4,8.3,3.7,8.6,3.4
		c0.5-0.5,0.8-1,1-1.7C9.6,3.3,9.4,4.9,8.6,5.7z"/>
	<path class="st0" d="M10.2,1.9C10.2,1.8,10.2,1.8,10.2,1.9C10.2,1.8,10.2,1.8,10.2,1.9C10.2,1.8,10.2,1.8,10.2,1.9z"/>
	<path class="st0" d="M9.9,0.1l0.2,0c0,0,0,0,0,0c0,0,0,0,0,0l0,0L9.9,0.1L9.9,0.1z"/>
	<polygon class="st0" points="9.9,0 9.9,0 10.1,0 10.1,0 	"/>
	<path class="st0" d="M10.2,1.8C10.2,1.8,10.2,1.8,10.2,1.8c0-0.5,0-1,0-1.5c0,0,0,0,0,0L9.7,2.5l0-2.2c0,0,0,0,0,0
		c0,1.3,0,2.7,0.2,3.9C10.1,3.5,10.1,2.7,10.2,1.8C10.2,1.8,10.2,1.8,10.2,1.8z"/>
	<path class="st0" d="M9.9,0.3L9.9,0.3C9.9,0.3,9.9,0.3,9.9,0.3c-0.1,0-0.2,0-0.3,0l0,2.2l0.4-2.2C10.1,0.3,10,0.3,9.9,0.3
		C10,0.3,10,0.3,9.9,0.3z"/>
	<path class="st0" d="M9.9,0.3C10,0.3,10,0.3,9.9,0.3C10,0.3,10,0.3,9.9,0.3L9.9,0.3z"/>
	<path class="st0" d="M10.1,0.3C10.1,0.3,10.2,0.3,10.1,0.3C10.2,0.3,10.2,0.3,10.1,0.3C10.2,0.3,10.2,0.3,10.1,0.3L10.1,0.3z"/>
	<path class="st0" d="M10,0.3c0,0,0.1,0,0.2,0l0,0C10.1,0.3,10,0.3,10,0.3z"/>
	<path class="st0" d="M9.9,0.3C9.9,0.3,9.9,0.3,9.9,0.3L9.9,0.3C9.9,0.3,9.9,0.3,9.9,0.3z"/>
	<path class="st0" d="M10.1,0.3C10.2,0.3,10.2,0.3,10.1,0.3c0-0.1,0-0.1,0-0.2L10.1,0.3z"/>
	<path class="st0" d="M9.9,0.1l0,0.2c0,0,0,0,0,0l0,0c0,0,0,0,0,0c0.1,0,0.1,0,0.2,0l0-0.2c0,0,0,0,0,0c0,0,0,0,0,0L9.9,0.1z"/>
	<path class="st0" d="M9.9,5.6L9.7,6C9.5,6.3,8.4,8.4,8.9,9.4c0.2,0.3,0.5,0.5,0.8,0.5c0.4,0.1,0.7,0,1-0.3c0.9-0.9-0.5-3.4-0.7-3.6
		L9.9,5.6z M10.4,9.3C10.3,9.4,10,9.5,9.8,9.4c-0.2,0-0.4-0.1-0.5-0.3C9.1,8.7,9.5,7.5,9.9,6.7C10.4,7.6,10.8,8.9,10.4,9.3z"/>
	<path class="st0" d="M8.2,0.3C7.6,0.5,7,0.8,6.6,1.2C6.3,1.5,6,1.9,5.9,2.4C5.9,2.7,5.7,3.1,5.5,3.3C5.2,3.6,4.7,3.7,4.3,3.6
		C4.1,3.5,3.9,3.3,3.8,3c-0.1-0.6,0-1.3,0.5-1.8C5,0.5,6.4,0.3,8,0.2C7.2,0.2,6.5,0.2,5.9,0H5.6C4.9,0.2,4.4,0.4,4,0.8
		C3.4,1.4,3.2,2.2,3.3,3C3.4,3.5,3.7,4,4.2,4.1c0.6,0.2,1.2,0,1.6-0.4c0.3-0.3,0.5-0.7,0.6-1.2c0.1-0.3,0.3-0.7,0.5-0.9
		c0.8-0.6,1.7-1,2.6-1.3c0,0,0-0.1,0-0.1C9.1,0.3,8.6,0.3,8.2,0.3z"/>
	<path class="st0" d="M9.7,0.3C9.6,0.3,9.6,0.3,9.7,0.3C9.6,0.3,9.6,0.3,9.7,0.3C9.6,0.3,9.6,0.3,9.7,0.3C9.7,0.3,9.7,0.3,9.7,0.3z"
		/>
	<polygon class="st0" points="9.9,0.1 9.9,0.1 9.9,0 9.9,0 	"/>
	
		<rect x="9.9" y="0" transform="matrix(0.9971 -7.554112e-02 7.554112e-02 0.9971 2.651264e-02 0.7503)" class="st0" width="0" height="0"/>
	<path class="st0" d="M9.7,0.3C9.7,0.3,9.7,0.3,9.7,0.3C9.7,0.3,9.7,0.3,9.7,0.3L9.7,0.3C9.7,0.3,9.7,0.3,9.7,0.3z"/>
	<path class="st0" d="M9.9,0.3L9.9,0.3c-0.1,0-0.1,0-0.2,0l0,0.1C9.8,0.3,9.8,0.3,9.9,0.3C9.9,0.3,9.9,0.3,9.9,0.3z"/>
	<path class="st0" d="M9.9,0.1v0.2c0,0-0.1,0-0.1,0l0,0c0,0,0,0,0,0c0,0,0,0,0,0L9.9,0.1z"/>
	<path class="st0" d="M9.9,0.1l0,0.2c0,0,0,0,0,0L9.9,0.1L9.9,0.1L9.9,0.1z"/>
	<path class="st0" d="M8,0.2c0.1,0,0.1,0,0.2,0c0,0,0,0,0,0C8.1,0.2,8,0.2,8,0.2z"/>
	<path class="st0" d="M8.5,0H5.9C6.5,0.2,7.2,0.2,8,0.2c0.1,0,0.1,0,0.2,0c0,0,0,0,0,0c0.5,0,1,0,1.5,0c0,0,0,0,0,0L8.5,0z"/>
	<path class="st0" d="M9.7,0H8.5l1.1,0.2C9.6,0.1,9.7,0.1,9.7,0z"/>
	<path class="st0" d="M9.6,0.2C9.6,0.2,9.6,0.2,9.6,0.2C9.6,0.3,9.6,0.3,9.6,0.2C9.7,0.2,9.7,0.2,9.6,0.2L9.6,0.2z"/>
	<path class="st0" d="M9.7,0.1L9.7,0.1L9.7,0.1C9.7,0,9.7,0,9.7,0.1L9.7,0.1c0,0-0.1,0.1-0.1,0.1l0.1,0C9.7,0.2,9.7,0.1,9.7,0.1
		L9.7,0.1z"/>
	<path class="st0" d="M9.7,0C9.7,0,9.7,0,9.7,0L9.7,0L9.7,0L9.7,0z"/>
	
		<rect x="9.7" y="0" transform="matrix(0.9999 -1.048893e-02 1.048893e-02 0.9999 -7.450994e-05 0.1029)" class="st0" width="0.2" height="0"/>
	<polygon class="st0" points="9.9,0 9.7,0 9.7,0 9.9,0 	"/>
	
		<rect x="9.9" y="0" transform="matrix(0.9975 -7.000328e-02 7.000328e-02 0.9975 2.084401e-02 0.695)" class="st0" width="0" height="0"/>
	<rect x="9.9" y="0" class="st0" width="0" height="0"/>
	<path class="st0" d="M9.7,0.2L9.7,0.2C9.7,0.2,9.7,0.2,9.7,0.2C9.7,0.3,9.7,0.3,9.7,0.2L9.7,0.2z"/>
	<path class="st0" d="M9.7,0.3c0.1,0,0.1,0,0.2,0L9.7,0.3L9.7,0.3z"/>
	<path class="st0" d="M9.7,0.1c0,0,0,0.1,0,0.1l0,0L9.7,0.1L9.7,0.1z"/>
	<path class="st0" d="M9.9,0.1L9.9,0.1l-0.2,0l0,0.1l0.2,0c0,0,0.1,0,0.1,0V0.1z"/>
	<polygon class="st0" points="9.9,0.1 9.9,0.1 9.9,0.1 	"/>
	<path class="st0" d="M0.7,0.6C0.7,0.5,0.5,0.4,0.5,0H0c0,0.4,0.1,0.7,0.4,1c1,0.6,3.3-0.7,3.5-0.8L4.2,0h-1
		C2.2,0.5,1.1,0.8,0.7,0.6z"/>
	<polygon class="st0" points="10.1,0 9.9,0 9.9,0 	"/>
	<rect x="9.9" y="0" class="st0" width="0" height="0"/>
	<polygon class="st0" points="9.7,0 9.7,0 9.7,0 	"/>
	
		<rect x="9.9" y="0" transform="matrix(8.391352e-02 -0.9965 0.9965 8.391352e-02 9.0831 9.8974)" class="st0" width="0" height="0"/>
</g>
</svg>
