<svg id="gps" xmlns="http://www.w3.org/2000/svg" viewBox="0 0 1024 1024"><title>gps</title><path d="M1024,792.6c0,127.59-103.81,231.4-231.4,231.4S561.2,920.19,561.2,792.6,665,561.2,792.6,561.2,1024,665,1024,792.6ZM763.63,919.51,943.4,739.74,894,690.37,763.63,820.78l-87.49-87.49-49.37,49.36L763.63,919.51ZM492.5,382.6A104.73,104.73,0,1,1,387.77,277.87,104.84,104.84,0,0,1,492.5,382.6ZM761,493C609.7,508.89,491.38,637.19,491.38,792.6A300.52,300.52,0,0,0,501,868.12l-113.2,142.32L83.5,627.89A385.84,385.84,0,0,1,0,387.77C0,174,174,0,387.77,0S775.54,174,775.54,387.77A386.3,386.3,0,0,1,761,493ZM213.22,382.6c0,96.24,78.31,174.54,174.55,174.54s174.54-78.3,174.54-174.54S484,208.05,387.77,208.05,213.22,286.35,213.22,382.6Z"/></svg>