<svg xmlns="http://www.w3.org/2000/svg" viewBox="0 0 42.66 42.02"><defs><style>.cls-1{fill:#fff;}</style></defs><g id="Layer_2" data-name="Layer 2"><g id="Layer_1-2" data-name="Layer 1"><path class="cls-1" d="M11.63,14.3c.94.53.61.84.12,1.37a9.16,9.16,0,0,0-2.21,4.08c-1,3.76-2,7.52-2.92,11.28-.49,1.92.16,3.33,1.71,3.82s2.91-.31,3.59-2.14,1.29-3.72,2-5.57c1.35-3.69,1.59-3.75,5.21-2.21,1.21.51,1.52,1,.89,2.3-1.68,3.44-3.23,6.94-4.79,10.43a2.87,2.87,0,0,0,1.26,4,2.91,2.91,0,0,0,4-1.37c.4-.64.72-1.32,1.09-2l4.11-7.24c1.8,3.18,3.41,6.05,5.05,8.91,1.06,1.87,2.58,2.47,4.16,1.69s2-2.25,1.24-4.16a81.48,81.48,0,0,0-3.65-8.65c-1.26-2.3-1-4.08.86-6.09,1.44,2.54,2.83,5,4.24,7.45.9,1.57,2.25,2.12,3.61,1.5s1.89-2.1,1.18-3.83c-1.25-3.06-2.56-6.09-3.85-9.14a13.67,13.67,0,0,0-6-7c-1.07-.59-2.12-1.21-3.23-1.7-.87-.39-1-.72-.36-1.49,1.21-1.41,2.35-2.87,3.48-4.34a2.55,2.55,0,0,0,0-3.6c-1-1-2.5-.84-3.7.37S26.24,3.52,25,4.77c-.32.32-.62.94-1.07.79-2-.65-3.17.53-4.31,1.84-.48.56-.79.62-1.25-.12A4.79,4.79,0,0,0,12.83,5,4.7,4.7,0,0,0,9.15,9,4.73,4.73,0,0,0,11.63,14.3ZM25.41,8.17c-.58-1.65.51-2.43,1.41-3.37s1.83-1.94,2.75-2.9c.53-.56,1.18-.85,1.84-.29s.43,1.25,0,1.84C30,5.22,28.55,7,27.11,8.73c-.81,1-.77,1.58.5,2a27.41,27.41,0,0,1,2.52,1.18,13.61,13.61,0,0,1,7.19,7.42c1.19,3,2.5,6,3.78,9,.39.91.48,1.74-.56,2.2s-1.5-.29-1.91-1c-1.29-2.26-2.53-4.56-3.87-6.8-.44-.75-.58-2-1.64-2s-1,1.28-1.51,1.95-.5,1.31-1.24,1.69a9.23,9.23,0,0,0-1.09-1.54c-.86-.83-.74-1.59-.25-2.6,1.57-3.26,1.44-3.48-2.05-4.64-.71-.23-1.47-.33-2.19-.53A1.55,1.55,0,0,0,22.6,16.3c-.1.38-.08,1.1-.73.95a3.92,3.92,0,0,1-1.85-.9c-.33-.34.29-.8.55-1.13,1.28-1.65,2.6-3.27,3.92-4.89C25,9.69,25.68,9,25.41,8.17Zm1.85,12.39c-1.06-.68-2.09-1.4-3.19-2-.72-.41-.51-.89-.34-1.46s.59-.95,1.29-.68c.26.1.57.08.84.18C28.86,17.67,29.28,17.33,27.26,20.56Zm-6-13c.69-.72,1.43-1.34,2.38-.53s.48,1.64-.15,2.42c-1.64,2-3.23,4.11-4.91,6.1-.8,1-.65,1.48.47,1.91.81.31,1.59.7,2.38,1.06A16.77,16.77,0,0,1,30.68,28c1.26,3.3,2.73,6.52,4.1,9.78.42,1,.76,2.1-.5,2.72s-2-.29-2.58-1.32c-1.65-2.93-3.29-5.86-5-8.78-1-1.77-1.23-1.77-2.2-.05q-2.46,4.4-4.91,8.81c-.57,1-1.24,2-2.57,1.34s-.91-1.78-.41-2.85c1.67-3.64,3.26-7.31,5-10.92.54-1.14.41-1.77-.74-2.34A16.06,16.06,0,0,0,15,22.6c-.86-.17-1.07.51-1.32,1.19-1,2.73-1.94,5.46-2.89,8.19-.35,1-.76,2-2.05,1.59s-1-1.49-.8-2.45c.94-3.71,1.91-7.41,2.87-11.11A8.36,8.36,0,0,1,13,16.28Q17.12,12,21.25,7.6ZM10.51,8.9a3.69,3.69,0,0,1,.54-1.11,3.78,3.78,0,0,1,3.08-1.65,4.3,4.3,0,0,1,2.07.67,3,3,0,0,1,.57.49c.93,1,1.39,2,.05,3.08a15.55,15.55,0,0,0-2.28,2.38c-.81,1-1.59.92-2.54.26A3.74,3.74,0,0,1,10.51,8.9Z"/><path class="cls-1" d="M4.92,21.38a4.87,4.87,0,0,0,4.92-4.95,4.92,4.92,0,1,0-4.92,4.95Zm0-8.73a3.8,3.8,0,1,1-.08,7.59A3.8,3.8,0,1,1,5,12.65Z"/></g></g></svg>