<svg xmlns="http://www.w3.org/2000/svg" viewBox="0 0 36.82 35.51"><defs><style>.cls-1{fill:#fff;}</style></defs><g id="Layer_2" data-name="Layer 2"><g id="Layer_1-2" data-name="Layer 1"><path class="cls-1" d="M30.26,27a3.6,3.6,0,0,1-2.33-.85,3.67,3.67,0,0,1-.51-4.94c.53-.84,1.06-1.4,1.94-1.41h0A4.55,4.55,0,0,1,32,21.23l.09.07c1.13.95,2.4,2,1.16,4l-.06.09a3,3,0,0,1-.74.91A3.39,3.39,0,0,1,30.26,27Zm-.89-5.66h0c-.08,0-.22,0-.65.69A2.22,2.22,0,0,0,28.9,25a2.16,2.16,0,0,0,1.36.5,1.91,1.91,0,0,0,1.2-.41,1.87,1.87,0,0,0,.39-.51l.08-.13c.47-.75.4-.91-.85-2L31,22.41C30.47,22,29.77,21.38,29.37,21.38Z"/><path class="cls-1" d="M23.44,22a5.81,5.81,0,1,1,5.81-5.81A5.82,5.82,0,0,1,23.44,22Zm0-10.08a4.27,4.27,0,1,0,4.27,4.27A4.28,4.28,0,0,0,23.44,11.87Z"/><path class="cls-1" d="M9.92,11.83a5.92,5.92,0,1,1,5.92-5.92A5.92,5.92,0,0,1,9.92,11.83Zm0-10.29A4.38,4.38,0,1,0,14.3,5.91,4.37,4.37,0,0,0,9.92,1.54Z"/><path class="cls-1" d="M5.66,22a2.28,2.28,0,1,1,2.27-2.28A2.28,2.28,0,0,1,5.66,22Zm0-3a.74.74,0,1,0,.73.73A.74.74,0,0,0,5.66,18.94Z"/><path class="cls-1" d="M16.05,22.53a.78.78,0,0,1-.55-.23.77.77,0,0,1,0-1.09l.23-.23V19.12a1.73,1.73,0,0,0-3.46,0V21l.15.16a.77.77,0,1,1-1.09,1.09L11,21.85a.8.8,0,0,1-.22-.55V19.12a3.27,3.27,0,1,1,6.54,0V21.3a.8.8,0,0,1-.22.55l-.46.45A.78.78,0,0,1,16.05,22.53Z"/><path class="cls-1" d="M14.77,16.62H13.23V14.87A5,5,0,0,0,13,13.43l1.43-.58a6.66,6.66,0,0,1,.3,2Z"/><path class="cls-1" d="M6.43,18.17H4.89v-3.3a6.48,6.48,0,0,1,.29-2l1.43.57a5.24,5.24,0,0,0-.18,1.43Z"/><rect class="cls-1" x="18.11" y="30.24" width="1.54" height="5.27"/><rect class="cls-1" x="27.23" y="30.24" width="1.54" height="5.27"/><path class="cls-1" d="M4.61,35.51H3.07V32.9a3.53,3.53,0,0,1-2.16-1A3.5,3.5,0,0,1,0,29.44V20.11c0-5,2.21-7.52,6.74-7.82a.87.87,0,0,1,.52.16l2.66,2,2.67-2a.84.84,0,0,1,.51-.16c3.06.2,5,1.39,6,3.63l-1.41.62c-.71-1.62-2.12-2.48-4.41-2.69l-2.9,2.22a.77.77,0,0,1-.93,0l-2.9-2.22c-3.56.32-5,2.15-5,6.26v9.37A2,2,0,0,0,2,30.82a2.42,2.42,0,0,0,1.8.59.78.78,0,0,1,.77.77Z"/><path class="cls-1" d="M15.25,35.51H13.71V29.72c0-4.87,2.16-7.38,6.61-7.67h7.17v1.55H20.37c-3.62.23-5.12,2-5.12,6.13Z"/><path class="cls-1" d="M33.17,35.51H31.63V29.72A7.53,7.53,0,0,0,31,26.28l1.32-.79a9.18,9.18,0,0,1,.84,4.26Z"/><path class="cls-1" d="M13,35.51H11.43V29.16l-1.37-1.81,1.23-.93,1.53,2a.77.77,0,0,1,.15.46Z"/><path class="cls-1" d="M35.45,35.51H33.91V28.9a.72.72,0,0,1,.16-.46l1.53-2,1.22.93-1.37,1.81Z"/></g></g></svg>