<svg xmlns="http://www.w3.org/2000/svg" viewBox="0 0 27.49 40.52"><defs><style>.cls-1{fill:#fff;}</style></defs><g id="Layer_2" data-name="Layer 2"><g id="Layer_1-2" data-name="Layer 1"><path class="cls-1" d="M20.89,27.07c-.87-.86-.8-1.38,0-2.17a18.51,18.51,0,0,0,5-7.57C28.33,10.23,24-.35,13.66,0A12.6,12.6,0,0,0,1.11,15,15.09,15.09,0,0,0,5.8,24c1.78,1.6,1.55,2.61-.07,4.07C3.92,29.69,2.38,31.61.65,33.33c-.83.83-.89,1.43,0,2.27a54.81,54.81,0,0,1,3.93,4.14c1,1.18,1.68.91,2.54-.1,1.09-1.27,2.28-2.46,3.43-3.68,3.25-3.43,3.21-3.38,6.46-.05,1.57,1.61,2.85,4.52,4.86,4.41s3.18-3,4.87-4.53c1-.91,1.06-1.6,0-2.6C24.73,31.21,22.9,29.05,20.89,27.07Zm-2-2.16c-1.32-1.47-3.42-2.79-3.73-4.45s2.15-2.84,3.27-4.34c1-1.28,2.05-2.46,3-3.76s1.73-2.67,2.58-4C26.89,13,24.81,19.88,18.87,24.91Zm-5-6.1c-1.66.06-2.69-2.55-4.06-3.94-.11-.11-.2-.23-.3-.35-2.93-3.47-2.58-4.42,2-5.39.74-.16,1.5-.19,2.08-.26A16.12,16.12,0,0,1,15.36,9c1.8.35,4,.63,4.7,2.31.49,1.24-1.45,2.41-2.37,3.54C16.5,16.33,15.2,18.75,13.87,18.81ZM6.39,3.69c3.76-3,10.37-3.17,14.35-.27,2.84,2.07,2.93,3.17.5,6.67C16.49,7,11.84,6.63,7.13,9.58c-.63.4-.92.48-1.43-.22C4,7,4.15,5.51,6.39,3.69Zm5.54,28.83C10.22,34.35,8.46,36.13,6.81,38c-.83.94-1.3.77-2.11,0-3.34-3.4-3.36-3.37-.13-6.8.89-.94,1.84-1.82,2.64-2.83s1.58-1.45,2.56-.09a27.37,27.37,0,0,0,2.32,2.51c.24.26.45.55.68.85C12.44,32,12.19,32.25,11.93,32.52ZM25,35.68c-3.21,3.41-3.18,3.44-6.31.12-4.14-4.38-8.35-8.69-12.37-13.17-3.7-4.1-5.2-8.8-3-14.46,6.14,9.56,14.3,17.06,21.75,25.16C26,34.31,25.84,34.79,25,35.68Z"/></g></g></svg>