<svg id="medical" xmlns="http://www.w3.org/2000/svg" viewBox="0 0 1024 877.71"><title>medical</title><path d="M37.71,184Q75.42,146.27,128,146.28h18.28V877.71H128q-52.57,0-90.29-37.72T0,749.71V274.28Q0,221.72,37.71,184ZM731.42,54.85v91.43h91.43V877.71H201.15V146.28h91.43V54.85q0-22.86,16-38.85T347.43,0H676.58q22.84,0,38.84,16t16,38.85ZM365.72,73.14v73.14H658.29V73.14Zm365.7,493.71h0V457.14a17.57,17.57,0,0,0-18.26-18.28h-128v-128a17.61,17.61,0,0,0-18.29-18.28H457.15a17.6,17.6,0,0,0-18.29,18.28v128h-128a17.58,17.58,0,0,0-18.28,18.28V566.85a17.6,17.6,0,0,0,18.29,18.29h128v128a17.6,17.6,0,0,0,18.28,18.27H566.87a17.61,17.61,0,0,0,18.28-18.27v-128h128a17.58,17.58,0,0,0,18.27-18.29ZM986.29,184Q1024,221.71,1024,274.28V749.71q0,52.57-37.71,90.29T896,877.71H877.71V146.28H896q52.57,0,90.29,37.72Z"/></svg>