<svg id="animal-6" xmlns="http://www.w3.org/2000/svg" viewBox="0 0 1024.01 896.54"><title>paw-heart</title><path d="M1023.85,268.77l.16,3.59-.19,52c-15.37,177.37-175.76,360.08-490.29,558.5L512,896.54,490.42,882.9C175.89,684.47,15.53,501.8.13,324.39L0,320.9l.16-52.13C15.28,99.17,139.78,11.6,249.08,2,383.22-9.78,454.22,31.52,512,86.89,569.78,31.56,640.52-9.72,774.91,2.06c109.24,9.56,233.77,97.14,248.94,266.71ZM545.56,291c-11.47,42.77,4.29,84.15,35.21,92.42S646,363.74,657.47,321s-4.31-84.16-35.23-92.46S557,248.24,545.56,291Zm-130.3-62.49c-30.9,8.3-46.66,49.72-35.2,92.46s45.79,70.74,76.7,62.43S503.41,333.76,492,291s-45.81-70.73-76.69-62.46ZM280.25,449c19.59,34,55.39,50,79.92,35.88s28.53-53.15,8.89-87.13-55.34-50-79.89-35.84-28.51,53.15-8.92,87.09Zm404,160.59c0-106.76-106.16-193.22-165.53-193.24S353.22,502.83,353.22,609.59s74.11,27.73,165.51,27.73S684.26,716.31,684.26,609.59Zm73-160.59c19.6-33.94,15.68-72.95-8.9-87.1s-60.32,1.85-79.9,35.84-15.68,73,8.87,87.13S737.63,483,757.21,449Z"/></svg>