<svg id="symbol" xmlns="http://www.w3.org/2000/svg" viewBox="0 0 897.54 1024"><title>quote</title><path d="M448.77,0c247.87,0,448.8,200.94,448.77,448.73S696.64,897.5,448.77,897.5a449.08,449.08,0,0,1-110.41-14.23L125.2,1024l15-250C54,692.29,0,577,0,448.77,0,200.94,200.93,0,448.77,0ZM405.4,421.49V296.33H242.89v151H320.6q-1.91,27.27-18.32,47.31t-59.39,40.14L278,601.21q69.9-30.56,98.63-70.61T405.4,421.49Zm249.25,0,.07-125.16H492.21v151h77.71q-1.9,27.27-18.32,47.31t-59.42,40.14l35.08,66.48q69.9-30.56,98.62-70.61t28.77-109.11Z"/></svg>