<svg id="telephone" xmlns="http://www.w3.org/2000/svg" viewBox="0 0 1024 1021.83"><title>telephone</title><path d="M392.73,631.8C300.87,540.61,213,435,254.72,392.93c59.76-60.21,111.85-97.39,5.07-229.16S82.61,133.71,24.71,192c-66.84,67.33-2.35,317,245.6,563.13s498.12,308.67,564.91,241.37C893.1,938.21,994.38,867,861.77,761.2S692.38,707.82,632.62,768c-41.74,42.06-148-45-239.89-136.21Zm133.18-435c69.22,10.88,141.55,44.42,199.19,102s91.2,130,102,199.2c0,0,4.32,27.7-15.08,47.1-20,20-54.37,20.83-75.4-.2-12.44-12.44-15.09-30-15.09-30-6.41-34.2-17.27-85.72-72.07-140.53S543.16,308.83,509,302.41c0,0-17.54-2.65-30-15.08-21-21-20.17-55.43-.2-75.4,19.4-19.41,47.11-15.09,47.11-15.09ZM785.8,238.19C685.31,137.71,571.27,94.86,478.85,108.81c0,0-29.26,4.87-48.38-14.25a53.73,53.73,0,0,1-.15-75.75c12.95-12.95,34-15.76,34-15.76C544.18-8.46,704.83,6,861.4,162.6s171.07,317.21,159.54,397.07c0,0-2.82,21.06-15.76,34a53.74,53.74,0,0,1-75.75-.15c-19.11-19.11-14.25-48.38-14.25-48.38,14-92.41-28.89-206.46-129.38-306.95Z" transform="translate(0 0)"/></svg>