<svg xmlns="http://www.w3.org/2000/svg" viewBox="0 0 19.9 18.3"><defs><style>.cls-1{fill:#ffc85780;}</style></defs><g id="Layer_2" data-name="Layer 2"><g id="patt_5" data-name="patt 5"><path class="cls-1" d="M10.88,17.57a1.55,1.55,0,0,1,.51-1.21c1.16-1.08,3.91-1.15,4.87-1.08l.79.05V12.47a3.64,3.64,0,0,0,1.81-.92,3.67,3.67,0,0,0,1-2.76,3.65,3.65,0,0,0-1-2.75,3.73,3.73,0,0,0-1.82-.93V2.25l-.79.06c-1,.06-3.68,0-4.86-1.08A1.55,1.55,0,0,1,10.88,0H9a1.55,1.55,0,0,1-.51,1.21C7.37,2.31,4.6,2.38,3.64,2.31l-.79-.06V5.11A3.58,3.58,0,0,0,1,6,3.62,3.62,0,0,0,0,8.79a3.63,3.63,0,0,0,1,2.76,3.64,3.64,0,0,0,1.81.92v2.86l.79-.05c1-.07,3.68,0,4.87,1.08A1.55,1.55,0,0,1,9,17.57v.73h1.86ZM4.31,11.05H3.58a2.31,2.31,0,0,1-1.52-.59,2.26,2.26,0,0,1-.58-1.67A2.28,2.28,0,0,1,2.05,7.1a2.43,2.43,0,0,1,1.52-.6h.74V3.8c1.28,0,3.8-.21,5.15-1.47a2.59,2.59,0,0,0,.44-.5,3,3,0,0,0,.45.5c1.37,1.29,3.9,1.47,5.15,1.47V6.51h.74a2.43,2.43,0,0,1,1.52.6,2.27,2.27,0,0,1,.57,1.69,2.35,2.35,0,0,1-.57,1.7,2.48,2.48,0,0,1-1.52.59H15.5v2.72c-1.28,0-3.81.21-5.15,1.47a4.32,4.32,0,0,0-.45.51,3.5,3.5,0,0,0-.44-.51C8.09,14,5.56,13.81,4.31,13.81Z"/></g></g></svg>